# xmcd
#
# Track frame offsets:
#	180
#	12137
#	23821
#	34058
#	43620
#	53908
#	67537
#	79183
#	88622
#
# Disc length: 1330 seconds
#
# Revision: 0
# Processed by: cddbd v1.5.1PL0 Copyright (c) Steve Scherf et al.
# Submitted via: dBpowerAMP V4.0
#
DISCID=5f053009
DTITLE=Drifters - The very best of the Drifters
DYEAR=1900
DGENRE=Blues
TTITLE0=Sweets for my Sweets
TTITLE1=Under the Boardwalk
TTITLE2=There goes my Baby
TTITLE3=Saturday Night at the Movies
TTITLE4=Up on the Roof
TTITLE5=On Broadway
TTITLE6=White Christmas
TTITLE7=I count the Tears
TTITLE8=Some kind of wonderful
EXTD=
EXTT0=
EXTT1=
EXTT2=
EXTT3=
EXTT4=
EXTT5=
EXTT6=
EXTT7=
EXTT8=
PLAYORDER=
